REM DIRINDEX 1\2\4,1\2\5,1\2\6,1\3\7,1\3\8,1\3\9,1\3\10
REM DIRNAME cjc057,folder01,folder02,folder03,folder04,folder05,folder06,folder07,folder08,folder09
TITLE ""
FILE "b_123.mp3" MP3
  TRACK 01 AUDIO
    TITLE "0:"
    INDEX 01 00:00:00
  TRACK 02 AUDIO
    TITLE "7:cjc057_07727"
    INDEX 01 00:00:13
  TRACK 03 AUDIO
    TITLE "0:"
    INDEX 01 00:01:34
  TRACK 04 AUDIO
    TITLE "8:cjc057_07728"
    INDEX 01 00:01:62
  TRACK 05 AUDIO
    TITLE "0:"
    INDEX 01 00:05:03
  TRACK 06 AUDIO
    TITLE "7:cjc057_07729"
    INDEX 01 00:06:14
  TRACK 07 AUDIO
    TITLE "0:"
    INDEX 01 00:07:37
  TRACK 08 AUDIO
    TITLE "8:cjc057_07730"
    INDEX 01 00:07:68
  TRACK 09 AUDIO
    TITLE "0:"
    INDEX 01 00:12:56
  TRACK 10 AUDIO
    TITLE "7:cjc057_07731"
    INDEX 01 00:13:67
  TRACK 11 AUDIO
    TITLE "0:"
    INDEX 01 00:15:36
  TRACK 12 AUDIO
    TITLE "8:cjc057_07732"
    INDEX 01 00:15:72
  TRACK 13 AUDIO
    TITLE "0:"
    INDEX 01 00:18:09
  TRACK 14 AUDIO
    TITLE "7:cjc057_07733"
    INDEX 01 00:19:16
  TRACK 15 AUDIO
    TITLE "0:"
    INDEX 01 00:20:39
  TRACK 16 AUDIO
    TITLE "8:cjc057_07734"
    INDEX 01 00:20:73
  TRACK 17 AUDIO
    TITLE "0:"
    INDEX 01 00:23:22
  TRACK 18 AUDIO
    TITLE "7:cjc057_07735"
    INDEX 01 00:24:31
  TRACK 19 AUDIO
    TITLE "0:"
    INDEX 01 00:25:56
  TRACK 20 AUDIO
    TITLE "8:cjc057_07736"
    INDEX 01 00:26:17
  TRACK 21 AUDIO
    TITLE "0:"
    INDEX 01 00:29:54
  TRACK 22 AUDIO
    TITLE "7:cjc057_07737"
    INDEX 01 00:30:63
  TRACK 23 AUDIO
    TITLE "0:"
    INDEX 01 00:32:11
  TRACK 24 AUDIO
    TITLE "8:cjc057_07738"
    INDEX 01 00:32:47
  TRACK 25 AUDIO
    TITLE "0:"
    INDEX 01 00:34:73
  TRACK 26 AUDIO
    TITLE "7:cjc057_07739"
    INDEX 01 00:36:09
  TRACK 27 AUDIO
    TITLE "0:"
    INDEX 01 00:37:20
  TRACK 28 AUDIO
    TITLE "8:cjc057_07740"
    INDEX 01 00:37:56
  TRACK 29 AUDIO
    TITLE "0:"
    INDEX 01 00:39:64
  TRACK 30 AUDIO
    TITLE "7:cjc057_07741"
    INDEX 01 00:40:73
  TRACK 31 AUDIO
    TITLE "0:"
    INDEX 01 00:42:18
  TRACK 32 AUDIO
    TITLE "8:cjc057_07742"
    INDEX 01 00:42:53
  TRACK 33 AUDIO
    TITLE "0:"
    INDEX 01 00:47:13
  TRACK 34 AUDIO
    TITLE "7:cjc057_07743"
    INDEX 01 00:48:24
  TRACK 35 AUDIO
    TITLE "0:"
    INDEX 01 00:49:39
  TRACK 36 AUDIO
    TITLE "8:cjc057_07744"
    INDEX 01 00:49:74
  TRACK 37 AUDIO
    TITLE "0:"
    INDEX 01 00:53:47
  TRACK 38 AUDIO
    TITLE "7:cjc057_07745"
    INDEX 01 00:54:60
  TRACK 39 AUDIO
    TITLE "0:"
    INDEX 01 00:56:02
  TRACK 40 AUDIO
    TITLE "8:cjc057_07746"
    INDEX 01 00:56:33
  TRACK 41 AUDIO
    TITLE "0:"
    INDEX 01 00:59:47
  TRACK 42 AUDIO
    TITLE "7:cjc057_07747"
    INDEX 01 01:00:59
  TRACK 43 AUDIO
    TITLE "0:"
    INDEX 01 01:01:70
  TRACK 44 AUDIO
    TITLE "8:cjc057_07748"
    INDEX 01 01:02:32
  TRACK 45 AUDIO
    TITLE "0:"
    INDEX 01 01:04:60
  TRACK 46 AUDIO
    TITLE "7:cjc057_07749"
    INDEX 01 01:05:69
  TRACK 47 AUDIO
    TITLE "0:"
    INDEX 01 01:07:29
  TRACK 48 AUDIO
    TITLE "8:cjc057_07750"
    INDEX 01 01:07:64
  TRACK 49 AUDIO
    TITLE "0:"
    INDEX 01 01:08:70
  TRACK 50 AUDIO
    TITLE "7:cjc057_07751"
    INDEX 01 01:10:06
  TRACK 51 AUDIO
    TITLE "0:"
    INDEX 01 01:11:19
  TRACK 52 AUDIO
    TITLE "8:cjc057_07752"
    INDEX 01 01:11:54
  TRACK 53 AUDIO
    TITLE "0:"
    INDEX 01 01:14:02
  TRACK 54 AUDIO
    TITLE "7:cjc057_07753"
    INDEX 01 01:15:13
  TRACK 55 AUDIO
    TITLE "0:"
    INDEX 01 01:16:22
  TRACK 56 AUDIO
    TITLE "8:cjc057_07754"
    INDEX 01 01:16:58
  TRACK 57 AUDIO
    TITLE "0:"
    INDEX 01 01:19:05
  TRACK 58 AUDIO
    TITLE "7:cjc057_07755"
    INDEX 01 01:20:14
  TRACK 59 AUDIO
    TITLE "0:"
    INDEX 01 01:21:25
  TRACK 60 AUDIO
    TITLE "8:cjc057_07756"
    INDEX 01 01:21:61
  TRACK 61 AUDIO
    TITLE "0:"
    INDEX 01 01:23:63
  TRACK 62 AUDIO
    TITLE "7:cjc057_07757"
    INDEX 01 01:25:00
  TRACK 63 AUDIO
    TITLE "0:"
    INDEX 01 01:26:19
  TRACK 64 AUDIO
    TITLE "8:cjc057_07758"
    INDEX 01 01:26:56
  TRACK 65 AUDIO
    TITLE "0:"
    INDEX 01 01:29:74
  TRACK 66 AUDIO
    TITLE "7:cjc057_07759"
    INDEX 01 01:31:10
  TRACK 67 AUDIO
    TITLE "0:"
    INDEX 01 01:32:23
  TRACK 68 AUDIO
    TITLE "8:cjc057_07760"
    INDEX 01 01:32:59
  TRACK 69 AUDIO
    TITLE "0:"
    INDEX 01 01:35:00
  TRACK 70 AUDIO
    TITLE "7:cjc057_07761"
    INDEX 01 01:36:07
  TRACK 71 AUDIO
    TITLE "0:"
    INDEX 01 01:37:24
  TRACK 72 AUDIO
    TITLE "8:cjc057_07762"
    INDEX 01 01:37:60
  TRACK 73 AUDIO
    TITLE "0:"
    INDEX 01 01:40:64
  TRACK 74 AUDIO
    TITLE "7:cjc057_07763"
    INDEX 01 01:41:73
  TRACK 75 AUDIO
    TITLE "0:"
    INDEX 01 01:43:31
  TRACK 76 AUDIO
    TITLE "8:cjc057_07764"
    INDEX 01 01:43:66
  TRACK 77 AUDIO
    TITLE "0:"
    INDEX 01 01:47:15
  TRACK 78 AUDIO
    TITLE "7:cjc057_07765"
    INDEX 01 01:48:24
  TRACK 79 AUDIO
    TITLE "0:"
    INDEX 01 01:49:41
  TRACK 80 AUDIO
    TITLE "8:cjc057_07766"
    INDEX 01 01:50:02
  TRACK 81 AUDIO
    TITLE "0:"
    INDEX 01 01:52:02
  TRACK 82 AUDIO
    TITLE "7:cjc057_07767"
    INDEX 01 01:53:14
  TRACK 83 AUDIO
    TITLE "0:"
    INDEX 01 01:54:31
  TRACK 84 AUDIO
    TITLE "8:cjc057_07768"
    INDEX 01 01:54:66
  TRACK 85 AUDIO
    TITLE "0:"
    INDEX 01 01:56:08
  TRACK 86 AUDIO
    TITLE "7:cjc057_07769"
    INDEX 01 01:57:17
  TRACK 87 AUDIO
    TITLE "0:"
    INDEX 01 01:58:38
  TRACK 88 AUDIO
    TITLE "8:cjc057_07770"
    INDEX 01 01:58:74
  TRACK 89 AUDIO
    TITLE "0:"
    INDEX 01 02:00:10
  TRACK 90 AUDIO
    TITLE "7:cjc057_07771"
    INDEX 01 02:01:21
  TRACK 91 AUDIO
    TITLE "0:"
    INDEX 01 02:02:46
  TRACK 92 AUDIO
    TITLE "8:cjc057_07772"
    INDEX 01 02:03:04
  TRACK 93 AUDIO
    TITLE "0:"
    INDEX 01 02:05:52
  TRACK 94 AUDIO
    TITLE "7:cjc057_07773"
    INDEX 01 02:06:61
  TRACK 95 AUDIO
    TITLE "0:"
    INDEX 01 02:08:17
  TRACK 96 AUDIO
    TITLE "8:cjc057_07774"
    INDEX 01 02:08:52
  TRACK 97 AUDIO
    TITLE "0:"
    INDEX 01 02:11:47
  TRACK 98 AUDIO
    TITLE "7:cjc057_07775"
    INDEX 01 02:12:60
  TRACK 99 AUDIO
    TITLE "0:"
    INDEX 01 02:14:02
  TRACK 100 AUDIO
    TITLE "8:cjc057_07776"
    INDEX 01 02:14:37
  TRACK 101 AUDIO
    TITLE "0:"
    INDEX 01 02:16:44
  TRACK 102 AUDIO
    TITLE "7:cjc057_07777"
    INDEX 01 02:17:51
  TRACK 103 AUDIO
    TITLE "0:"
    INDEX 01 02:18:63
  TRACK 104 AUDIO
    TITLE "8:cjc057_07778"
    INDEX 01 02:19:23
  TRACK 105 AUDIO
    TITLE "0:"
    INDEX 01 02:20:54
  TRACK 106 AUDIO
    TITLE "7:cjc057_07779"
    INDEX 01 02:21:67
  TRACK 107 AUDIO
    TITLE "0:"
    INDEX 01 02:22:70
  TRACK 108 AUDIO
    TITLE "8:cjc057_07780"
    INDEX 01 02:23:28
  TRACK 109 AUDIO
    TITLE "0:"
    INDEX 01 02:24:49
  TRACK 110 AUDIO
    TITLE "7:cjc057_07781"
    INDEX 01 02:25:61
  TRACK 111 AUDIO
    TITLE "0:"
    INDEX 01 02:26:72
  TRACK 112 AUDIO
    TITLE "8:cjc057_07782"
    INDEX 01 02:27:34
  TRACK 113 AUDIO
    TITLE "0:"
    INDEX 01 02:28:41
